<?xml version="1.0" encoding="UTF-8" standalone="no"?>
<!-- Created with Inkscape (http://www.inkscape.org/) -->

<svg
   width="228.86458mm"
   height="133.35001mm"
   viewBox="0 0 228.86458 133.35001"
   version="1.1"
   id="svg1"
   xml:space="preserve"
   inkscape:version="1.4.2 (f4327f4, 2025-05-13)"
   sodipodi:docname="Chi Alpha District Lines Plain SVG.svg"
   xmlns:inkscape="http://www.inkscape.org/namespaces/inkscape"
   xmlns:sodipodi="http://sodipodi.sourceforge.net/DTD/sodipodi-0.dtd"
   xmlns="http://www.w3.org/2000/svg"
   xmlns:svg="http://www.w3.org/2000/svg"><sodipodi:namedview
     id="namedview1"
     pagecolor="#ffffff"
     bordercolor="#000000"
     borderopacity="0.25"
     inkscape:showpageshadow="2"
     inkscape:pageopacity="0.0"
     inkscape:pagecheckerboard="0"
     inkscape:deskcolor="#d1d1d1"
     inkscape:document-units="mm"
     inkscape:zoom="2.9355776"
     inkscape:cx="325.48961"
     inkscape:cy="146.30851"
     inkscape:window-width="1100"
     inkscape:window-height="1153"
     inkscape:window-x="810"
     inkscape:window-y="0"
     inkscape:window-maximized="0"
     inkscape:current-layer="layer2" /><defs
     id="defs1" /><g
     inkscape:groupmode="layer"
     id="layer2"
     inkscape:label="Districts"
     style="display:inline"><path
       style="display:inline;fill:#000000;stroke-width:0.264583"
       d="m 85.03243,97.935125 1.781123,-13.888681 1.233728,-9.705025 10.368607,1.090387 9.508412,0.77759 -0.44991,10.155477 -0.72362,10.507374 -12.786159,-0.909192 -0.0397,0.811189 -5.185389,-0.116741 -0.376143,1.603639 -3.330953,-0.326017 z"
       id="path3"
       inkscape:label="NewMexico"
       sodipodi:nodetypes="ccccccccccccc" /><path
       style="display:inline;fill:#000000;stroke-width:0.264583"
       d="m 108.04462,78.460963 10.01816,0.0043 -0.2501,14.648979 -0.95801,0.49083 -0.40424,4.280523 -0.84248,0.875824 -0.39987,3.470971 -1.01841,6.02041 -0.66243,0.24848 -1.30364,-1.699 -4.42839,-0.0227 -1.28015,1.23313 -0.99091,1.63058 -1.05885,-0.71203 -1.41783,-0.135 -3.00219,-2.8992 -0.385265,-2.09064 -4.295607,-5.12453 -0.5503,-1.275143 -0.954819,-0.567236 0.05111,-0.851714 12.860861,0.93491 1.27335,-18.461791 z"
       id="path4"
       inkscape:label="WestTexas"
       sodipodi:nodetypes="cccccccccccccccccccccccc" /><path
       style="display:inline;fill:#000000;stroke-width:0.264583"
       d="m 139.31463,98.682171 0.78463,2.004009 0.12537,2.07105 -0.60199,2.13891 0.001,2.35028 -2.52195,1.22843 -0.89875,-1.24238 -0.62014,0.41727 0.41493,1.33927 -4.40752,3.21096 -0.97139,-0.48218 -0.82108,0.25181 0.42424,0.7733 -2.22634,2.33566 -1.00296,0.005 0.17688,1.04963 -0.38082,1.04248 -1.31608,0.0317 0.77142,1.03757 0.14474,1.88311 0.62307,1.50776 0.0955,1.52157 -0.8584,0.0591 -1.16296,-0.51424 -1.53953,-0.16352 -1.43631,-1.11542 -1.49802,-0.007 -1.20633,-2.40338 -0.24069,-1.27487 -0.0345,-1.37219 -1.42788,-1.34955 -1.97385,-2.44149 -1.46915,-3.38879 0.94869,-6.95056 8.97743,0.10842 2.25424,-1.0359 3.9e-4,-1.681441 4.6718,-0.737762 1.86398,1.316103 1.20627,-1.19028 z"
       id="path6"
       inkscape:label="SouthTexas"
       sodipodi:nodetypes="ccccccccccccccccccccccccccccccccccccccccc" /><path
       style="display:inline;fill:#000000;stroke-width:0.264583"
       d="m 139.28921,98.533973 -1.17984,-2.224852 0.38705,-2.81896 -0.28592,-2.709461 -1.38211,-0.26968 -1.01129,0.101129 -1.41582,-1.247264 -0.74162,0.438229 -1.85404,-0.03371 -1.51694,0.842745 -1.65179,-1.112424 -0.70791,0.03371 -0.57306,1.011296 -1.48324,-0.943877 -0.91016,0.16855 -1.21356,-1.146135 -2.32598,-0.13484 -1.41582,-1.078717 -0.97758,-0.16855 -1.11243,-0.370808 -0.0337,6.202619 -1.21356,0.539356 -0.16854,4.247446 -0.97759,1.146135 -0.37081,3.16873 9.00054,0.10113 2.32598,-0.97759 0.0337,-1.719201 4.61825,-0.707909 1.75292,1.41581 1.3821,-1.28097 z"
       id="path23"
       inkscape:label="NorthTexas"
       sodipodi:nodetypes="cccccccccccccccccccccccccccccccc" /><path
       style="display:inline;fill:#000000;stroke-width:0.264583"
       d="m 136.90325,90.580274 -0.22796,-8.659947 -0.65023,-3.22841 -0.33166,-2.207744 -8.0734,0.306973 -8.20145,-0.120265 -6.47152,-0.266529 -4.92565,-0.172262 0.008,2.189333 9.86175,0.03147 -0.009,8.408404 1.00983,0.483387 1.08942,0.04761 1.45431,1.189734 2.31541,0.10895 1.00828,0.998397 1.23108,0.08442 1.41513,0.719903 0.86772,-0.963319 1.31765,0.694382 0.8856,0.439857 1.17881,-0.738511 1.81265,-0.06955 0.96358,-0.444086 1.42529,1.134281 z"
       id="path10"
       inkscape:label="Oklahoma"
       sodipodi:nodetypes="cccccccccccccccccccccccccc" /><path
       style="fill:#000000;stroke-width:0.264583"
       d="m 144.01729,93.138514 4.62393,-0.295687 -0.1775,-3.053958 1.07467,-2.767747 0.78847,-1.086265 0.10922,-0.918873 0.71503,-1.026021 0.68035,-0.793922 0.30383,-1.407653 0.5961,-0.863523 -0.16814,-0.85281 -1.79126,-0.03541 0.11395,-0.754064 0.52582,-0.610718 -0.54567,-0.706 -7.70643,0.504969 -7.00379,0.282482 0.63108,3.319361 0.0623,8.537263 1.49335,0.129846 0.13184,2.492049 5.54285,-0.09332 z"
       id="path8"
       inkscape:label="Arkansas"
       sodipodi:nodetypes="ccccccccccccccccccccccc" /><path
       style="fill:#000000;stroke-width:0.264583"
       d="m 138.42836,93.235418 10.40693,-0.331886 0.31061,1.765754 0.182,2.02032 -0.7336,1.287321 -0.83037,1.590946 -0.31613,1.818467 6.41542,-0.5529 1.54673,3.24758 -0.55562,0.4541 0.90448,0.86097 -0.5194,0.85923 0.26251,0.89688 1.47675,0.51542 -0.0336,0.95386 -1.42324,-0.0264 -1.85843,-1.29847 0.3127,1.10058 -0.81234,0.78758 -0.96426,-1.07112 -1.09173,0.94842 -2.03704,-0.52592 -1.65033,-1.8366 -1.36331,0.002 -0.96109,1.10498 -3.12984,-0.98325 -0.74102,-0.49241 -1.62176,0.70391 0.12058,-2.62031 0.68649,-2.79605 -0.99103,-2.885842 -1.14505,-2.186862 z"
       id="path9"
       inkscape:label="Louisiana"
       sodipodi:nodetypes="ccccccccccccccccccccccccccccccccc" /><path
       style="fill:#000000;stroke-width:0.264583"
       d="m 158.267,97.035461 0.11137,-4.630751 0.004,-8.780796 -2.90134,0.452157 -4.20082,0.0781 -0.78373,0.660116 -0.0973,1.396052 -0.84945,0.782198 -0.90032,2.376265 -0.22877,1.690575 0.67177,3.324193 0.24245,2.28668 -1.70517,3.144689 -0.20257,1.463201 6.4876,-0.39716 0.11942,1.60631 1.42897,1.47972 0.78499,0.0844 0.85655,-0.7742 1.17854,0.62108 0.81477,-0.53357 z"
       id="path11"
       inkscape:label="Mississippi"
       sodipodi:nodetypes="cccccccccccccccccccccc" /><path
       style="fill:#000000;stroke-width:0.264583"
       d="m 158.52551,83.566282 4.04314,-0.395488 4.4009,-0.359711 1.97318,6.672818 1.73151,3.803489 -0.48849,1.892831 0.15774,0.976498 0.20239,1.733356 0.55743,1.355835 -9.00573,0.702818 -0.25179,0.740662 0.72875,0.95486 -0.0255,1.12218 -1.20391,0.47531 -1.0188,-1.30851 -1.12597,1.53004 -0.83528,-5.799336 0.0949,-6.228655"
       id="path12"
       inkscape:label="Alabama"
       sodipodi:nodetypes="cccccccccccccccccc" /><path
       style="display:inline;fill:#000000;stroke-width:0.264583"
       d="m 171.64372,100.12849 -0.98371,-1.772722 -0.0612,-1.62801 -0.49776,-1.238332 0.57725,-2.066971 -1.00121,-1.733141 -2.76148,-9.022466 3.78557,-0.293061 2.37685,-0.300623 1.97431,-0.287314 0.15598,1.609056 1.60607,0.416879 1.19498,1.595615 2.12022,1.78605 0.79202,1.419497 1.28259,0.257756 0.43115,1.33786 1.15532,1.799405 1.13083,0.368631 -0.0972,1.201702 -0.62534,0.642376 -0.18234,1.312642 -0.25215,2.786522 -1.70525,0.06795 0.0882,0.952755 -0.30371,0.722124 -0.58826,-0.42275 -3.09359,0.179628 -3.59896,0.136584 z"
       id="path14"
       inkscape:label="Georgia"
       sodipodi:nodetypes="cccccccccccccccccccccccccccccc" /><path
       style="fill:#000000;stroke-width:0.264583"
       d="m 161.77669,100.57173 0.28859,-0.660815 9.08955,-0.660817 0.4146,0.803632 6.60389,-0.376991 -0.43239,2.036711 0.0665,2.74532 -2.09951,-1.86114 -0.97218,-0.15188 -0.84931,0.60421 -1.98584,1.79454 -1.02621,-0.0593 -2.19467,-1.98109 -1.25036,-0.1921 -1.14334,-0.59497 -1.65613,0.44083 -0.47862,-0.5212 -0.58392,0.44144 -0.70254,0.0728 -0.18627,-1.06478 z"
       id="path13"
       inkscape:label="WestFlorida"
       sodipodi:nodetypes="ccccccccccccccccccccc" /><path
       style="display:inline;fill:#000000;stroke-width:0.264583"
       d="m 178.24161,99.732396 2.87931,-0.124932 0.58962,0.483266 0.4959,-0.378263 -0.29979,-1.249272 2.02067,-0.124925 1.10075,2.83432 1.17036,3.11547 1.80603,1.83552 0.3326,1.73238 1.29455,1.82041 0.74768,1.46429 1.38032,2.12427 0.17356,4.05243 -0.25577,2.83603 -1.86568,0.72525 -2.43811,-2.31575 -1.65935,-0.32219 -0.70625,-2.69655 -0.7563,0.72891 -0.14247,-1.31487 -0.94656,-0.0644 -1.53831,-2.42782 0.74263,-1.40339 -0.33715,-0.4826 -1.07765,1.16708 -0.34671,-4.53309 -1.24112,-1.56367 -1.52733,-1.09859 0.0659,-3.34132 z"
       id="path15"
       inkscape:label="PeninsularFlorida"
       sodipodi:nodetypes="ccccccccccccccccccccccccccccccc" /><path
       style="fill:#000000;stroke-width:0.264583"
       d="m 184.96658,92.578716 -0.97286,-0.38884 -1.77967,-3.183683 -1.13226,-0.362658 -0.84461,-1.27037 -2.10107,-1.806628 -1.2585,-1.799099 -1.14742,-0.05491 -0.8664,-0.757841 0.27638,-1.260349 3.81025,-1.846982 3.06934,0.106852 1.45781,1.040423 3.71243,-0.457454 4.58888,3.441046 -1.44248,1.23823 -0.82476,2.818911 -1.41391,1.591925 -1.34415,1.248919 -1.5461,0.266547 z"
       id="path17"
       inkscape:label="SouthCarolina"
       sodipodi:nodetypes="ccccccccccccccccccccc" /><path
       style="display:inline;fill:#000000;stroke-width:0.264583"
       d="m 192.34933,83.476518 1.32311,-0.53616 0.77076,-1.960643 2.16618,-1.61179 1.67196,-1.32108 -0.79057,-0.575064 -0.151,-0.894846 -0.58706,-0.691348 2.00026,-0.08086 0.69751,-2.05078 -0.63976,-0.568154 -0.55255,1.147039 -0.19961,-0.98125 -0.49235,-0.52602 1.06376,-0.389469 1.25987,1.18983 0.40119,1.14253 -0.13547,1.19031 0.44457,0.24178 0.36242,-1.473775 -0.63477,-1.341307 -0.85104,-0.84915 -0.90983,-0.814856 -0.35966,-1.118097 -5.0944,1.068202 -3.45487,0.697219 -3.45488,0.697218 -3.68745,0.842574 -3.23763,0.397454 -0.39167,0.99747 -0.67638,1.100645 -0.86031,0.121207 -0.64875,0.698766 -0.75725,-0.132011 -1.10566,1.462037 -1.27995,0.940717 -1.14306,0.250136 -0.30831,0.952968 -0.77343,0.516901 0.0115,1.011109 3.59702,-0.374067 1.12599,-0.519422 1.79461,-1.304342 1.15505,-0.228712 2.80254,-0.06188 1.61064,1.21725 3.67468,-0.468872 4.70185,3.319953 z"
       id="path18"
       inkscape:label="NorthCarolina"
       sodipodi:nodetypes="ccccccccccccccccccccccccccccccccccccccccccccccccc" /><path
       style="display:inline;fill:#000000;stroke-width:0.264583"
       d="m 171.17166,82.214976 0.0848,-1.060019 0.67841,-0.212003 0.50881,-1.102418 1.39922,-0.551209 1.69603,-1.229622 0.42401,-0.890413 0.97521,-0.0424 0.38161,-0.636011 0.93281,-0.0424 0.84802,-2.204837 -11.53299,1.738429 -9.37056,0.636011 -0.0848,0.890413 -4.19767,0.0848 -1.10242,0.551209 -0.0848,2.713646 -0.76322,1.484024 -0.1696,0.63601 -0.55121,1.144821 h 4.32487 l 3.13765,-0.551209 z"
       id="path22"
       inkscape:label="Tennessee"
       sodipodi:nodetypes="ccccccccccccccccccccccc" /><path
       style="display:inline;fill:#000000;stroke-width:0.264583"
       d="m 173.94969,65.934491 -1.35184,0.733136 -2.54105,-0.422838 -1.05804,-1.55767 -1.48468,0.856904 -0.38813,1.152822 -1.26323,0.458195 -0.4717,1.690902 -0.91471,0.356251 -0.52407,0.986649 -0.84751,-0.242056 -0.89977,1.291638 -0.86364,-0.500996 -0.73064,0.532248 -2.89788,0.251065 -0.49195,1.424144 -0.86529,0.945667 -0.11135,1.143018 -0.89431,-0.407865 -0.49854,-0.127394 -0.44832,0.39947 -0.33757,2.649651 4.02181,-0.07792 0.0469,-0.844965 9.36882,-0.66848 6.04102,-0.948106 3.95738,-4.102367 -1.64761,-1.425015 -0.80367,-2.621059 z"
       id="path21"
       inkscape:label="Kentucky"
       sodipodi:nodetypes="cccccccccccccccccccccccccccccc" /><path
       style="display:inline;fill:#000000;stroke-width:0.264583"
       d="m 186.05491,73.084694 -0.6977,-4.564157 -1.16285,-0.930275 -0.93027,-0.02907 -0.95935,-1.33727 0.66864,-1.017487 -3.5176,-3.866454 -2.03498,1.3082 -0.37792,1.744263 -1.01749,0.08722 -0.11628,1.88962 -0.814,0.552349 0.75585,2.587326 1.68613,1.366343 -4.01181,4.09902 9.62252,-1.162841 z"
       id="path20"
       inkscape:label="Appalachian"
       sodipodi:nodetypes="ccccccccccccccccc" /><path
       style="display:inline;fill:#000000;stroke-width:0.264583"
       d="m 198.78561,62.612666 -1.92063,-0.128042 -1.2164,-4.801585 -14.85291,2.816929 -0.90444,-4.271308 -0.18391,5.231627 3.20105,3.649204 -0.44815,1.472486 0.83228,0.768252 1.72857,0.896297 0.96032,4.865606 12.48412,-2.368783 -0.70423,-1.472486 h -0.96032 l -1.2164,-1.344443 0.57619,-0.960316 -0.38413,-0.640212 -0.19206,-1.344443 -1.92064,0.256085 -0.70423,-0.832276 -0.70423,-0.256085 v -2.112698 l 0.57619,1.600531 0.64021,0.704231 h 0.64021 l 0.25609,-3.713226 0.64021,-1.792592 -0.19207,2.112698 0.32011,1.152379 -0.19207,1.02434 2.04868,0.896294 0.064,4.161375 1.02434,0.192064 v -1.216401 z"
       id="path19"
       inkscape:label="Potomac"
       sodipodi:nodetypes="ccccccccccccccccccccccccccccccccccc" /><path
       style="display:inline;fill:#000000;stroke-width:0.264583"
       d="m 198.20914,55.015312 -2.62032,2.780556 -14.69143,2.749985 -2.11352,-9.377658 2.14155,-1.665367 0.47802,0.973858 13.4427,-2.632857 1.11564,1.51171 1.10247,0.796011 -0.65943,2.659878 0.80647,1.121686 z"
       id="path26"
       inkscape:label="Penn-Del"
       sodipodi:nodetypes="cccccccccccc" /><path
       style="display:inline;fill:#000000;stroke-width:0.264583"
       d="m 197.64379,58.930666 0.90058,0.356492 0.4248,1.002926 0.81787,-1.56745 0.71915,-1.382345 0.18313,-1.638499 0.004,-1.845691 -1.13694,-0.866189 0.47847,-0.665427 -0.64421,-2.492883 -2.2711,0.228453 -0.7821,2.802825 1.76765,2.164347 -2.55007,2.599564 1.48214,5.166012 1.95671,-0.2945 -0.21563,-1.365041 -1.47246,-0.961491 -0.5351,-2.123005 z"
       id="path25"
       inkscape:label="NewJersey"
       sodipodi:nodetypes="cccccccccccccccccccc" /><path
       style="display:inline;fill:#000000;stroke-width:0.264583"
       d="m 181.45094,50.56156 -0.45946,-0.999348 2.03735,-2.215749 -0.36135,-2.439517 1.24235,-1.006433 2.24406,-0.161575 2.87876,0.166446 1.85198,-2.273462 -0.88684,-1.988542 1.29314,-1.950874 1.475,-2.069948 4.91244,-1.297793 1.10914,4.91956 0.94651,1.414571 0.70466,2.699005 -0.0192,3.109792 0.53059,2.934882 0.18191,1.544658 3.20316,-0.851343 0.27567,1.008346 -4.50491,1.585481 -0.71308,-2.889017 -2.27959,0.376844 -1.28362,-0.884065 -1.07619,-1.369231"
       id="path27"
       inkscape:label="NewYork"
       sodipodi:nodetypes="ccccccccccccccccccccccccc" /><path
       style="display:inline;fill:#000000;stroke-width:0.264583"
       d="m 200.45016,43.406327 6.53016,-2.048677 1.15238,0.768255 -0.51217,1.024337 1.85661,1.792592 -1.85661,1.536506 -1.02434,-0.960315 0.38413,2.304761 -3.52117,0.832273 -2.4328,1.728571 -0.0938,-1.024337 -0.55723,-2.839463 z"
       id="path16"
       inkscape:label="SouthernNewEngland"
       sodipodi:nodetypes="ccccccccccccc" /><path
       style="display:inline;fill:#000000;stroke-width:0.264583"
       d="m 207.04434,41.293629 1.47248,-4.737563 h 1.08836 l 0.32011,-1.15238 1.2164,-0.576191 v -2.048676 l 2.1127,0.256085 3.13703,-3.521163 -0.89629,-0.896294 -1.15238,-0.06402 -0.64021,-1.472489 -0.83228,0.128043 -1.53651,-5.185711 -1.66454,-1.600528 -1.34445,1.216401 -1.79259,-0.704232 -0.57619,2.240739 -0.70423,2.688888 v 3.201056 l -1.02434,1.920634 -1.66455,1.792592 -5.04229,1.543659 1.17252,4.953922 1.05284,1.569082 0.70423,2.496823 z"
       id="path7"
       sodipodi:nodetypes="cccccccccccccccccccccccccc"
       inkscape:label="NorthernNewEnglend" /><path
       style="fill:#000000;stroke-width:0.264583"
       d="m 179.39461,53.288825 0.38171,2.71783 0.14503,2.619425 -0.0928,2.366684 -2.66271,2.131246 -0.0732,1.245139 -1.02384,0.06813 -0.14119,1.832622 -0.77414,0.612181 -1.44236,-0.953757 -0.99068,0.856421 -2.66485,-0.501468 -0.8233,-1.30697 -0.89394,-0.137425 -1.02226,1.056405 -1.28794,-11.499407 4.40493,-0.980534 2.97742,0.834186 1.33403,-0.364966 1.0632,-0.09459 0.18586,-0.960905 1.25427,-0.810904 1.69537,-0.650175 z"
       id="path33"
       inkscape:label="Ohio"
       sodipodi:nodetypes="cccccccccccccccccccccccc" /><path
       style="display:inline;fill:#000000;stroke-width:0.264583"
       d="m 159.9094,54.5011 6.17607,-0.124246 4.54501,-0.77631 0.33821,-3.15705 1.78395,-2.054942 -1.03096,-2.745562 -0.57768,-1.3534 -1.13651,-0.425472 -0.91963,0.921114 -0.76873,0.731487 -0.71221,-0.134225 0.18749,-1.024128 0.87133,-0.654485 0.0859,-0.644334 0.12439,-1.555203 -0.27716,-1.144452 -0.0454,-1.07373 -1.04205,-1.051948 -1.26728,-0.17661 -1.75233,-0.75271 -0.20517,-1.084 2.37519,0.242137 -0.46897,-1.721904 -1.74566,-0.277499 -1.29554,-0.01231 -0.58261,-1.122604 -1.91832,0.610833 0.10084,2.761841 1.04689,-0.03928 1.06154,-0.09932 0.12783,1.418896 0.0364,1.228178 -0.75572,0.003 0.0628,2.071612 -0.45084,-0.05984 -0.48414,-0.703011 -1.20696,1.315666 -0.12209,2.01711 -0.41808,1.248759 0.0246,1.911182 1.19923,2.884651 -0.27267,2.842251 z"
       id="path35"
       inkscape:label="Michigan"
       sodipodi:nodetypes="ccccccccccccccccccccccccccccccccccccccccccc" /><path
       style="fill:#000000;stroke-width:0.264583"
       d="m 167.30424,66.79215 -0.58512,-6.319317 -0.77718,-6.191274 -6.20676,0.08772 -0.79051,0.911172 -0.99879,0.13687 0.42407,9.266611 0.20659,3.622484 -0.80687,3.275344 2.74953,-0.253026 0.43122,-0.443101 1.03882,0.348723 0.95316,-1.340052 1.00302,0.445029 0.56901,-0.96334 0.99336,-0.39196 0.0499,-1.311246 z"
       id="path34"
       inkscape:label="Indiana"
       sodipodi:nodetypes="cccccccccccccccccc" /><path
       style="fill:#000000;stroke-width:0.264583"
       d="m 158.0011,55.504116 -1.59222,-1.526518 -0.3118,-2.038688 -2.48852,0.330095 -5.11338,0.6502 0.94366,2.120141 -1.23305,1.9921 -1.42513,0.583632 0.50021,1.988778 c -0.43008,0.885751 -1.05743,0.80939 -1.59063,1.634338 l 0.15079,3.081325 3.92398,3.156434 0.0187,3.412518 2.9258,2.502986 0.87249,1.810555 0.56742,0.429268 0.53146,-1.025406 1.54702,0.364178 0.17121,-1.36133 0.78948,-0.52587 0.47009,-1.539691 0.87544,-3.0899 z"
       id="path36"
       inkscape:label="Illinois"
       sodipodi:nodetypes="ccccccccccccccccccccccc" /><path
       style="display:inline;fill:#000000;stroke-width:0.264583"
       d="m 149.95825,69.043038 -2.05827,1.049768 -1.5399,-1.094249 -1.46472,-0.523415 -2.2906,1.759181 -1.77485,-1.04094 -4.99854,-0.01437 -0.002,7.389126 0.37323,2.225365 14.91446,-0.653999 0.36439,0.606611 -0.78857,1.176799 1.94175,0.06396 0.30382,-1.398034 1.11499,-0.881325 0.1464,-2.122497 -0.62532,-0.292949 -0.64878,-1.59203 -1.40168,-1.498262 -1.60413,-1.111953 z"
       id="path46"
       inkscape:label="SouthMissouri"
       sodipodi:nodetypes="ccccccccccccccccccccc" /><path
       style="display:inline;fill:#000000;stroke-width:0.264583"
       d="m 145.65206,61.602133 0.32617,2.724214 3.81691,3.119379 0.1677,1.646895 -2.13705,1.070703 -1.60734,-1.188063 -1.41528,-0.419809 -1.86343,1.884952 -2.05548,-1.188064 -4.93834,0.03354 -0.13676,-1.502967 -1.54522,-0.990797 0.24738,-1.951114 -1.37619,-1.033798 -0.92805,-2.058137 12.64444,-0.71369 z"
       id="path45"
       inkscape:label="NorthMissouri"
       sodipodi:nodetypes="ccccccccccccccccc" /><path
       style="display:inline;fill:#000000;stroke-width:0.264583"
       d="m 133.26724,63.943089 1.21927,0.841032 -0.20539,1.881884 1.5767,1.151968 0.0556,3.625416 -0.20483,4.889562 -5.69574,0.338546 -8.05137,0.03463 -10.0979,-0.331634 -0.0547,-6.927901 0.10612,-5.712078 11.08399,0.224509 z"
       id="path44"
       inkscape:label="Kansas"
       sodipodi:nodetypes="ccccccccccccc" /><path
       style="display:inline;fill:#000000;stroke-width:0.264583"
       d="m 129.56366,53.123291 -2.25537,-1.206342 -2.16101,0.338623 -1.9705,-1.091047 -7.50822,-0.02792 -9.08146,-0.362886 -0.16756,4.025647 -0.23148,4.153688 5.72197,0.569393 -0.008,4.218018 8.28699,0.231837 13.14353,0.127525 -1.4273,-2.841194 -0.23059,-2.890349 -0.72691,-1.6536 z"
       id="path43"
       inkscape:label="Nebraska"
       sodipodi:nodetypes="cccccccccccccccc" /><path
       style="display:inline;fill:#000000;stroke-width:0.264583"
       d="m 146.6355,52.110956 -0.99729,-3.467168 -3.72419,0.186412 -6.28207,0.159719 -6.08121,0.254584 -0.45448,3.596649 2.46639,5.331208 0.41812,3.630916 12.80407,-0.646597 0.7163,0.558953 1.86833,-2.093106 -0.73323,-1.989495 2.13014,-0.983958 0.64281,-1.083654 -0.18335,-1.158826 -0.65571,-1.335811 -0.87467,-0.776326 z"
       id="path42"
       inkscape:label="Iowa"
       sodipodi:nodetypes="cccccccccccccccccc" /><path
       style="fill:#000000;stroke-width:0.264583"
       d="m 148.16052,52.814489 8.147,-0.772482 -0.8405,-2.685686 0.83415,-2.343667 0.0407,-3.347859 0.67124,-1.35216 0.5888,-1.719377 -0.42557,-0.290373 -1.88361,3.029381 -0.41264,-0.238675 0.31591,-1.411465 -1.19403,-1.08049 -1.69817,-0.910296 -1.90721,-0.65687 -1.61419,-0.465436 -1.45109,-1.010598 -0.58202,-1.693768 0.57686,-0.130892 0.7021,1.505708 0.55414,0.633529 1.06372,0.253141 1.51307,0.49504 1.93354,0.81672 1.41344,0.842699 1.08738,1.326924 0.37559,0.02552 0.0792,-0.899005 1.4394,-2.953363 0.48732,0.619252 0.32377,-0.685191 0.45194,0.638444 1.71354,-1.556952 -0.0937,-2.852846 -1.42412,0.604168 -1.60662,0.464167 -1.73003,-0.617349 -1.31368,-0.864454 -1.48595,0.403264 0.58458,-1.45903 1.01995,-0.946871 -0.5704,-0.438747 -1.16895,0.356269 -0.93639,1.107141 -0.56943,1.090082 -2.46444,1.25432 -2.81238,0.54178 -0.20738,-1.580763 -2.15844,1.268555 -1.60329,0.591868 -0.063,2.261962 -1.7151,1.101842 0.53018,1.70505 -0.12658,2.03536 0.40943,1.436494 4.19346,2.838161 1.47967,5.049478 1.05507,0.09188 z"
       id="path37"
       inkscape:label="Wisconsin-NorthMichigan"
       sodipodi:nodetypes="cccccccccccccccccccccccccccccccccccccccccccccccccccccccccc" /><path
       style="fill:#000000;stroke-width:0.264583"
       d="m 148.38046,29.525999 -2.16289,-0.173119 -0.91979,-0.40054 -1.54159,0.880322 -1.11926,-0.858868 -1.34664,0.180752 -0.59498,-0.902934 -0.98192,-0.675393 -1.39592,0.315831 -0.7367,0.509876 -0.83235,-0.678177 -2.14478,-0.134368 -0.0223,-1.598407 -1.18753,-1.208291 -0.28283,1.561871 -5.27937,0.0081 -0.0699,4.373206 0.81502,2.444296 0.75764,6.017679 -0.95832,1.148183 1.12469,1.316214 0.34402,7.601496 15.66596,-0.594973 -0.41502,-1.727185 -4.05991,-2.732624 -0.45899,-1.150152 0.0788,-2.423582 -0.52723,-1.217508 1.75594,-1.370798 -0.0123,-2.209809 3.76181,-4.34108 z"
       id="path39"
       inkscape:label="Minnesota"
       sodipodi:nodetypes="cccccccccccccccccccccccccccccccc" /><path
       style="fill:#000000;stroke-width:0.264583"
       d="m 129.03804,52.774472 0.38372,-3.141601 0.48369,-0.472576 -0.28879,-7.452974 -1.21637,-1.430446 0.98863,-1.094703 -21.83119,-0.684049 -0.53441,6.005771 -0.36298,6.319276 8.75118,0.404599 7.9579,-0.0062 1.90969,1.210778 1.95065,-0.34289 z"
       id="path40"
       inkscape:label="SouthDakota"
       sodipodi:nodetypes="cccccccccccccc" /><path
       style="fill:#000000;stroke-width:0.264583"
       d="m 129.37213,39.013404 -0.72196,-6.171811 -0.93446,-2.434592 -0.1387,-4.033176 -19.15065,-0.540569 -0.92629,12.648499"
       id="path41"
       inkscape:label="NorthDakota"
       sodipodi:nodetypes="cccccc" /><path
       style="display:inline;fill:#000000;stroke-width:0.264583"
       d="m 108.34605,25.699283 -1.20831,16.544914 -20.401702,-1.959485 -0.496843,1.707797 -0.899785,-0.860779 -1.232209,0.514062 -2.66176,-0.391056 -1.308171,0.573572 -0.235846,-1.470318 -0.773259,-0.742675 -0.506292,-3.321813 -0.652002,-0.441608 -1.170854,0.613827 -0.288354,-0.793693 0.904019,-1.69231 0.07016,-2.057438 -1.334813,-2.358494 -1.482118,-2.022159 0.06435,-1.378088 -0.576753,-1.436372 0.450632,-1.6514 0.334067,-1.651401 18.713661,3.040835 z"
       id="path50"
       inkscape:label="Montana"
       sodipodi:nodetypes="cccccccccccccccccccccccc" /><path
       style="display:inline;fill:#000000;stroke-width:0.264583"
       d="M 107.17499,42.260014 106.20977,58.967418 83.675832,56.990567 86.603004,40.287962 Z"
       id="path49"
       inkscape:label="Wyoming"
       sodipodi:nodetypes="ccccc" /><path
       style="fill:#000000;stroke-width:0.264583"
       d="m 111.90874,76.366124 0.0166,-8.553922 -0.0514,-8.298996 -21.579119,-2.053218 -2.183486,16.85532 12.083785,1.217422 7.69285,0.686833 z"
       id="path47"
       inkscape:label="Colorado"
       sodipodi:nodetypes="cccccccc" /><path
       style="display:inline;fill:#000000;stroke-width:0.264583"
       d="m 87.970023,74.378487 2.517394,-16.761375 -6.744269,-0.768642 0.637313,-4.142547 -9.018001,-1.49769 -3.835153,20.65286 z"
       id="path24"
       sodipodi:nodetypes="ccccccc"
       inkscape:label="Utah" /><path
       style="display:inline;fill:#000000;stroke-width:0.264583"
       d="m 86.213448,42.0713 -0.791984,-0.948345 -1.374806,0.625274 -2.611548,-0.417803 -1.179439,0.340501 -0.162986,-1.38771 -0.756206,-0.72294 -0.713598,-3.29874 -0.67702,-0.418317 -1.191539,0.52672 -0.216563,-0.681366 0.764147,-1.225945 0.172735,-0.883021 -2.816577,0.644465 -2.770939,-0.583303 -2.025514,-0.478402 1.043538,1.898057 -1.888076,2.66455 -1.330483,1.456259 0.776267,0.937033 -1.227187,3.521623 -1.177949,5.83895 9.430176,1.979207 8.93896,1.332791 z"
       id="path60"
       inkscape:label="SouthIdaho"
       sodipodi:nodetypes="ccccccccccccccccccccccccc" /><path
       style="fill:#000000;stroke-width:0.264583"
       d="m 64.472037,18.938875 -7.935125,-2.340882 0.0335,4.15209 -0.626846,1.446961 -0.344211,1.70632 -1.277511,1.04493 0.49126,-1.187578 -0.650992,-0.931284 1.497842,-1.343424 -0.03057,-0.774496 -1.105164,-0.220128 -0.508271,-1.033353 -1.329809,-0.05803 -2.016306,-1.64089 -0.335262,5.479016 0.643455,0.931125 -0.587537,0.36237 0.520932,0.558457 -0.659416,0.81938 0.143106,1.201065 2.413939,1.193218 0.222455,2.441065 6.471798,1.254483 4.929188,0.01579 5.078037,1.060655 5.217839,1.245426 1.699512,-0.414139 1.014553,-0.340391 0.05358,-1.578089 -1.284219,-2.334737 -1.456006,-1.902154 0.05653,-1.35053 -0.65861,-1.530344 0.925429,-3.507895 z"
       id="path52"
       inkscape:label="Washington"
       sodipodi:nodetypes="ccccccccccccccccccccccccccccccccccc" /><path
       style="fill:#000000;stroke-width:0.264583"
       d="m 69.774403,33.080721 1.197324,1.918378 -0.673533,1.072355 -2.502318,3.071529 0.557473,1.215808 -2.334466,9.084193 -21.186452,-4.698522 -0.200295,-4.571639 2.382249,-3.887155 1.840487,-4.17297 0.934514,-4.655424 3.109958,0.63523 0.03453,2.523423 3.091669,0.664369 3.051971,0.655838 6.377665,0.198516 z"
       id="path53"
       inkscape:label="Oregon"
       sodipodi:nodetypes="ccccccccccccccccc" /><path
       style="display:inline;fill:#000000;stroke-width:0.264583"
       d="m 30.532944,10.269237 1.283315,4.390215 1.946337,5.920268 1.955412,-0.978572 0.73137,-1.437589 1.663116,-0.270469 1.186078,1.048476 0.702888,0.635628 1.126271,0.04038 -0.340734,1.736006 1.189319,1.685003 0.353314,1.543405 -1.074736,-0.139655 -0.444523,-0.804019 -2.380377,-1.44969 -1.055561,-0.338086 -1.269994,0.276603 -1.598119,-0.686992 -1.600447,0.182398 -1.820794,-0.01469 -0.435975,-0.613155 -1.011082,0.03399 0.232166,1.035191 -2.121154,1.184992 0.484782,-1.837966 -0.346874,-0.38905 -0.856469,1.653796 -0.0019,1.581575 -1.420767,1.759089 -2.78393,1.839701 -0.438767,-1.072028 1.465514,-0.950603 0.393686,-1.348328 -1.542564,-0.07917 -1.906148,0.808963 -1.938696,0.462626 0.25438,-1.016425 1.725119,-0.766402 0.858088,-1.123413 -1.361652,-0.166435 -0.494621,-1.339476 0.191444,-1.650992 1.721498,-0.834964 0.60204,-1.307843 -2.384252,0.08451 -0.86418,-1.427336 0.785124,-0.700821 1.152938,-0.572409 0.709833,0.915806 0.595573,-0.858154 -1.353111,-0.967935 -0.858875,-0.861536 1.031481,-0.902976 0.724323,-1.266828 1.097077,-0.589145 1.362385,-0.4789269 1.509906,0.2397709 1.203894,0.188769 1.529828,0.04846 z"
       id="path59"
       inkscape:label="Alaska"
       sodipodi:nodetypes="cccccccccccccccccccccccccccccccccccccccccccccccccccccccccccc" /><path
       style="display:inline;fill:#000000;stroke-width:0.264583"
       d="m 40.242149,101.20727 -2.553562,-2.755749 -2.859573,-2.857749 -6.24848,-2.806766 -6.533436,-2.761324 -1.021156,0.213508 -0.631956,1.067096 2.241008,0.830095 3.363046,1.340112 2.696316,1.081675 2.536428,2.192555 2.167047,0.79331 1.906824,3.462097 0.800804,3.30854 1.91534,-1.27319 1.13925,0.0595 z"
       id="path58"
       inkscape:label="Hawaii"
       sodipodi:nodetypes="ccccccccccccccccc" /><path
       style="display:inline;fill:#000000;stroke-width:0.264583"
       d="m 59.054865,66.462862 -5.840033,1.162367 -3.879776,3.747589 -3.063749,-0.128545 1.568901,3.552897 0.12527,2.46283 1.915736,1.170632 1.614498,1.376975 2.231583,1.257822 1.302788,2.116932 2.004317,1.53869 0.181693,1.923588 0.531804,1.97661 7.853746,0.687086 1.485763,-0.531302 -0.604942,-2.137816 1.14257,-1.007698 0.0811,-1.363926 1.212495,-1.34561 -1.133587,-3.793694 -8.730182,-12.665427 z"
       id="path56"
       inkscape:label="SouthernCalifornia"
       sodipodi:nodetypes="cccccccccccccccccccccc" /><path
       style="fill:#000000;stroke-width:0.264583"
       d="m 44.549472,44.376578 -0.809796,2.720552 -1.458837,2.917569 0.944479,3.700054 -0.794987,3.440334 1.245086,2.4713 0.378217,2.152692 0.900217,0.0056 0.735921,-0.610018 0.974418,0.446751 -1.031486,0.497081 0.104985,1.320354 -0.888805,-0.403023 -0.213025,2.170952 1.281668,1.572859 -0.7584,1.87887 0.848155,2.502957 3.296242,0.156874 4.056328,-3.744877 5.688384,-1.041782 8.777185,12.951058 1.069337,-0.579545 -0.08042,-3.460365 1.98868,0.161955 4.822044,-24.150368 C 65.31519,49.423749 54.735608,46.946054 44.549472,44.376578 Z"
       id="path54"
       inkscape:label="NorthernCal-Nevada"
       sodipodi:nodetypes="cccccccccccccccccccccccccc" /><path
       style="fill:#000000;stroke-width:0.264583"
       d="m 88.039956,74.555122 -1.349985,10.470751 -1.799189,13.231403 -6.871725,-0.973863 -12.207472,-6.804204 -0.337615,-1.051977 1.694958,-0.682188 -0.733235,-2.250789 1.225695,-1.057749 0.08357,-1.412312 1.185093,-1.124623 c -0.382393,-1.038466 -0.678763,-2.220198 -1.418328,-3.615836 l 1.191709,-0.264886 -0.0343,-3.557312 2.133512,0.101179 0.7492,-3.638265 z"
       id="path57"
       inkscape:label="Arizona"
       sodipodi:nodetypes="ccccccccccccccccc" /></g></svg>
