<?xml version="1.0" encoding="UTF-8" standalone="no"?>
<!-- Created with Inkscape (http://www.inkscape.org/) -->

<svg
   width="228.86458mm"
   height="133.35001mm"
   viewBox="0 0 228.86458 133.35001"
   version="1.1"
   id="svg1"
   xml:space="preserve"
   inkscape:version="1.4.2 (f4327f4, 2025-05-13)"
   sodipodi:docname="chi-alpha-districts -plain.svg"
   xmlns:inkscape="http://www.inkscape.org/namespaces/inkscape"
   xmlns:sodipodi="http://sodipodi.sourceforge.net/DTD/sodipodi-0.dtd"
   xmlns="http://www.w3.org/2000/svg"
   xmlns:svg="http://www.w3.org/2000/svg"><sodipodi:namedview
     id="namedview1"
     pagecolor="#ffffff"
     bordercolor="#000000"
     borderopacity="0.25"
     inkscape:showpageshadow="2"
     inkscape:pageopacity="0.0"
     inkscape:pagecheckerboard="0"
     inkscape:deskcolor="#d1d1d1"
     inkscape:document-units="mm"
     inkscape:zoom="1.0331875"
     inkscape:cx="641.70349"
     inkscape:cy="394.41052"
     inkscape:window-width="1920"
     inkscape:window-height="1171"
     inkscape:window-x="-9"
     inkscape:window-y="-9"
     inkscape:window-maximized="1"
     inkscape:current-layer="layer2" /><defs
     id="defs1" /><g
     inkscape:groupmode="layer"
     id="layer2"
     inkscape:label="Districts"
     style="display:inline"><path
       style="display:inline;fill:#000000;stroke-width:0.264583"
       d="m 85.501625,98.130623 c 0.954199,-7.858286 1.598166,-15.780371 3.09305,-23.554607 6.547475,0.570526 13.094955,1.141053 19.642425,1.711579 -0.32601,6.822451 -0.65203,13.644902 -0.97804,20.467353 -4.48933,-0.01034 -9.14353,-0.617979 -13.529643,-0.254401 0.23507,1.464676 -5.892826,-1.7684 -5.053237,1.956093 -1.058185,-0.108672 -2.11637,-0.217345 -3.174555,-0.326017 z"
       id="path3"
       inkscape:label="NewMexico" /><path
       style="display:inline;fill:#000000;stroke-width:0.264583"
       d="m 108.34801,78.494673 c 3.36186,0.05763 6.72372,0.115264 10.08558,0.172896 -0.0768,4.821871 -0.15368,9.643741 -0.23052,14.465612 -2.12301,1.627846 -0.92523,5.186069 -2.49399,7.347489 -0.37894,2.7185 -0.75789,5.437 -1.13683,8.1555 -1.467,-2.21748 -5.59404,-2.91111 -7.24161,-0.88471 -1.16926,3.50943 -3.90866,1.03577 -5.59987,-0.6745 -1.817199,-1.87113 -1.64763,-4.86843 -4.14151,-6.54098 -1.365849,-1.845724 -5.494507,-5.165198 -0.628662,-4.033521 3.450012,0.106389 6.900022,0.212777 10.350032,0.319165 0.34579,-6.108984 0.69159,-12.217967 1.03738,-18.326951 z"
       id="path4"
       inkscape:label="WestTexas" /><path
       style="display:inline;fill:#000000;stroke-width:0.264583"
       d="m 139.86059,98.864159 c 0.90861,2.819681 1.50383,7.917531 -1.81493,9.239881 -2.83807,-2.1285 -1.12203,2.21714 -4.63503,2.91608 -2.60181,0.98691 -3.05275,1.45015 -4.84183,3.88989 -0.80174,0.61375 -3.33943,2.51644 -1.87109,3.51507 -0.0406,2.24837 1.81824,6.18457 -1.92087,4.19674 -2.55202,-0.19758 -4.4559,-1.67916 -5.33416,-4.25419 0.59033,-2.71626 -2.6966,-4.09534 -3.47973,-6.70285 -2.39439,-2.6292 -0.29502,-6.24399 -0.39046,-9.37741 3.84256,-0.21222 8.07186,1.51141 11.49204,-0.81504 -0.61508,-2.745744 4.79001,-2.623353 6.2758,-1.05955 1.70554,-1.951662 4.22339,-1.167621 6.52026,-1.548621 z"
       id="path6"
       inkscape:label="SouthTexas" /><path
       style="fill:#000000;stroke-width:0.264583"
       d="m 119.5286,88.061571 c -1.8654,-2.213998 2.80151,0.920381 3.82986,0.651072 1.75228,0.932829 3.97327,1.758554 6.3282,1.440564 2.46397,0.870184 5.39849,-1.684063 7.39881,0.412759 3.51834,0.6735 0.24239,5.588018 2.45161,7.669003 -1.66839,1.195897 -4.62698,0.751133 -6.59084,1.475269 -2.3644,-0.407795 -6.457,-1.38268 -6.362,1.979172 -2.75505,1.75564 -6.34722,0.48275 -9.4397,0.72983 -3.63321,-1.00117 0.55316,-4.862449 0.0968,-7.260632 1.24441,-2.550937 0.93377,-5.452201 1.45822,-7.982967 0.40576,0.131529 0.58059,0.591616 0.82909,0.88593 z"
       id="path5"
       inkscape:label="NorthTexas" /><path
       style="display:inline;fill:#000000;stroke-width:0.264583"
       d="m 137.29322,90.632271 c 0.0143,-6.695826 1.25894,-17.159476 -8.5033,-13.945118 -6.81838,0.251673 -13.62531,-0.09742 -20.43056,-0.481061 -0.39606,6.217222 13.75919,-1.978654 9.91289,7.717394 -0.54602,5.506454 8.67553,5.535007 11.31886,6.301269 3.18216,0.01527 4.96352,-1.219231 7.70211,0.407516 z"
       id="path10"
       inkscape:label="Oklahoma" /><path
       style="fill:#000000;stroke-width:0.264583"
       d="m 138.96405,93.362649 c 3.36883,-0.149423 6.73765,-0.298847 10.10648,-0.44827 -1.57692,-4.209912 2.63149,-7.461055 3.29697,-11.357201 0.25931,-1.673924 -1.43132,-1.722301 -1.50139,-3.591315 -2.47371,0.04331 -5.07052,0.49549 -7.61364,0.509069 -2.02427,0.333111 -5.52005,-0.236169 -6.6086,0.699867 1.41445,3.538775 -0.73199,7.548696 0.98323,10.992565 1.17982,0.847554 1.4361,1.763057 1.33695,3.195285 z"
       id="path8"
       inkscape:label="Arkansas" /><path
       style="fill:#000000;stroke-width:0.264583"
       d="m 138.67879,93.199642 c 3.56393,0.914372 11.21973,-2.772055 10.94358,2.637542 -0.2962,2.528161 -3.46881,5.840206 1.12832,5.783336 3.09983,0.0476 5.33361,1.53692 5.09692,4.56325 2.30678,2.49774 0.93206,2.62559 -1.47846,1.86529 -3.1638,3.7902 -6.99635,-3.27129 -9.52361,-0.52839 -3.82073,0.33639 -5.67315,-1.8352 -4.32779,-5.40103 -0.30941,-3.173523 -2.77026,-5.580011 -1.83896,-8.919998 z"
       id="path9"
       inkscape:label="Louisiana" /><path
       style="fill:#000000;stroke-width:0.264583"
       d="m 159.69805,103.04587 c -1.60669,-6.355248 -0.83525,-12.949072 -0.92211,-19.421956 -4.38298,-0.267305 -8.86881,0.214176 -9.76309,5.425993 0.0553,4.113528 1.3026,8.54657 -1.09647,12.149443 2.40711,1.48727 6.24671,-1.84267 7.14693,2.1981 1.25693,1.08395 3.68716,1.17606 4.63474,-0.35158 z"
       id="path11"
       inkscape:label="Mississippi" /><path
       style="fill:#000000;stroke-width:0.264583"
       d="m 158.77594,83.566282 c 2.86238,-0.192106 5.72477,-0.384212 8.58715,-0.576318 1.05484,4.317813 4.14943,8.501255 3.15928,12.987874 2.86255,6.125702 -5.31686,2.583143 -7.99683,4.461122 2.09978,3.85572 -4.27307,3.18243 -3.32522,-0.37443 -0.19909,-1.004129 -0.39819,-2.008254 -0.59728,-3.01238"
       id="path12"
       inkscape:label="Alabama" /><path
       style="fill:#000000;stroke-width:0.264583"
       d="m 162.34911,100.10664 c 3.05449,-0.249738 6.10899,-0.499475 9.16348,-0.749213 1.82138,2.583733 8.50585,-2.070622 6.69651,3.038303 0.48203,4.7751 -3.08238,-2.15806 -3.92918,1.40553 -3.70391,2.58078 -6.94532,-3.46596 -10.84275,-1.7797 -0.54252,-0.51699 -0.77358,-1.25993 -1.08806,-1.91492 z"
       id="path13"
       inkscape:label="WestFlorida" /><path
       style="display:inline;fill:#000000;stroke-width:0.264583"
       d="m 178.31316,104.74107 c -2.02596,-4.48472 3.11009,-5.998491 6.22234,-5.508394 1.38904,4.634514 4.23002,8.855434 6.79478,13.066294 2.48749,2.4359 1.2059,11.74684 -3.02651,7.1941 -3.84961,-2.26742 -5.62773,-6.07325 -7.45892,-9.92838 0.16598,-2.08476 -0.20163,-4.24623 -2.53169,-4.82362 z"
       id="path15"
       inkscape:label="Florida"
       sodipodi:nodetypes="cccccc" /><path
       style="fill:#000000;stroke-width:0.264583"
       d="m 171.85838,100.16427 c -1.44069,-4.85447 -0.96145,-9.882437 -3.64813,-14.413813 -2.25504,-3.03636 -0.27376,-3.449102 2.49092,-3.37667 1.58053,0.243982 4.35906,-1.263006 4.96837,0.400487 3.33721,3.011543 8.14929,7.135725 9.35928,10.532507 0.29805,4.797536 -3.09086,7.807729 -7.76134,6.441217 -1.77069,0.377612 -3.60899,0.270162 -5.4091,0.416272 z"
       id="path14"
       inkscape:label="Georgia" /><path
       style="fill:#000000;stroke-width:0.264583"
       d="m 185.57478,92.614492 c -3.79426,-2.519933 -5.60833,-7.501262 -9.95969,-9.767129 1.85232,-5.464763 8.55238,-1.406501 12.71975,-2.059747 3.31421,1.410981 4.10504,4.140287 1.71344,7.068872 0.31685,2.998385 -5.48189,1.881877 -4.4735,4.758004 z"
       id="path17"
       inkscape:label="SouthCarolina" /><path
       style="fill:#000000;stroke-width:0.264583"
       d="m 192.02955,83.854442 c 2.50108,-1.606858 4.11083,-4.513563 6.57157,-5.982023 -1.33324,-1.833449 1.65063,-5.764337 2.07054,-1.951404 2.99325,-4.321066 -4.40028,-6.214498 -7.55926,-4.249451 -4.6065,0.929625 -9.213,1.859249 -13.8195,2.788874 -0.57609,3.70754 -7.03032,3.971708 -7.04742,7.649252 4.31364,0.100704 8.00209,-3.934654 12.17869,-1.2637 3.25936,-0.913041 5.32366,1.221006 7.60538,3.008452 z"
       id="path18"
       inkscape:label="NorthCarolina" /><path
       style="display:inline;fill:#000000;stroke-width:0.264583"
       d="m 179.43071,74.413006 c -7.02292,0.747119 -14.04583,1.494238 -21.06875,2.241357 -1.48714,1.978855 -6.55657,0.01973 -5.57464,4.352863 -2.3323,6.043335 6.68178,1.810568 9.70754,2.341713 4.27238,-0.716285 9.05129,0.505272 11.07028,-3.701643 1.9025,-2.198443 5.24143,-2.049243 5.86557,-5.23429 z"
       id="path22"
       inkscape:label="Tennessee" /><path
       style="display:inline;fill:#000000;stroke-width:0.264583"
       d="m 175.51852,67.036909 c -1.88818,-1.57104 -5.617,0.85281 -6.51976,-2.34979 -2.81988,3.561198 -5.9255,6.906757 -10.69235,7.215228 -0.0731,3.40593 -5.94592,2.413096 -3.18092,5.645085 4.35502,-0.464408 8.93533,-1.77238 13.56476,-1.93057 3.42213,0.725574 10.45472,-2.177039 7.92678,-5.966679 -0.69546,-0.670879 -1.22227,-1.619948 -1.09851,-2.613274 z"
       id="path21"
       inkscape:label="Kentucky" /><path
       style="display:inline;fill:#000000;stroke-width:0.264583"
       d="m 176.91429,71.616789 8.32964,-7.333705 -0.27162,-0.181078 1.72025,-4.979676 -5.88507,0.724316 -1.35809,-2.444568 -0.72432,5.613453 -3.34996,3.802661 z"
       id="path2"
       inkscape:label="WestVirginia" /><path
       style="fill:#000000;stroke-width:0.264583"
       d="m 186.15477,72.945939 -12.1756,2.585257 c 4.88232,-6.280492 5.20724,-5.666329 10.78656,-10.896139 0.85522,-1.30921 1.32472,-3.998087 1.32472,-3.998087 2.1845,-2.655653 9.88193,-5.812933 10.76265,0.770566 3.27552,1.695664 0.98717,6.481177 0.97506,9.344015 -3.74716,1.122497 -7.82116,1.360968 -11.67339,2.194388 z"
       id="path23"
       inkscape:label="Virginia"
       sodipodi:nodetypes="ccccccc" /><path
       style="display:inline;fill:#000000;stroke-width:0.264583"
       d="m 196.40943,57.482881 c -0.38309,2.078586 2.99559,8.064784 2.98945,2.968344 2.13943,-3.627366 1.87861,-7.082183 -0.008,-10.619625 -6.06396,-0.383814 1.35977,6.039662 -2.98116,7.651281 z"
       id="path25"
       inkscape:label="NewJersey" /><path
       style="display:inline;fill:#000000;stroke-width:0.264583"
       d="m 200.61671,46.566589 c 2.27997,-0.428338 6.22864,-2.044677 6.80057,1.440799 -3.38946,-0.763378 -6.66845,5.429788 -6.80057,-1.440799 z"
       id="path61"
       inkscape:label="Connecticut" /><path
       style="display:inline;fill:#000000;stroke-width:0.264583"
       d="m 201.15438,46.368898 c -2.71813,-4.339693 8.09079,-7.103336 7.90619,-1.786123 0.45291,3.147419 -5.7749,0.262704 -7.90619,1.786123 z"
       id="path29"
       inkscape:label="Massachusetts" /><path
       style="display:inline;fill:#000000;stroke-width:0.264583"
       d="m 202.72292,32.330673 0.70424,5.281743 -0.76826,4.417458 5.98796,-0.606216 -5.02764,-10.053304 z"
       id="path1"
       sodipodi:nodetypes="cccccc"
       inkscape:label="NewHampshire" /><path
       style="display:inline;fill:#000000;stroke-width:0.264583"
       d="m 207.75329,40.303651 c -1.33123,-2.947723 -2.66246,-5.895446 -3.99369,-8.843169 2.91625,-3.075086 1.02548,-12.589144 7.64734,-9.728226 0.34218,3.648566 3.24635,5.276359 4.53493,8.203567 -0.66953,3.425488 -5.21514,2.025076 -5.25579,5.889698 -2.12176,0.79645 -2.58063,2.313568 -2.93279,4.47813 z"
       id="path32"
       inkscape:label="Maine" /><path
       style="display:inline;fill:#000000;stroke-width:0.264583"
       d="m 200.78471,43.441548 c -0.29836,-2.932273 -4.59775,-8.611197 -1.29702,-9.717439 6.01274,-2.421506 3.34554,5.366194 3.06897,8.579991 -0.32211,0.766791 -1.11895,0.845185 -1.77195,1.137448 z"
       id="path30"
       inkscape:label="Vermont" /><path
       style="fill:#000000;stroke-width:0.264583"
       d="m 181.83507,50.817645 c 1.08031,-3.683451 1.45455,-8.794645 6.63556,-7.120387 3.49711,-0.909977 1.08556,-5.637744 4.41256,-7.592367 2.91803,-2.748161 6.73533,-1.140156 6.32278,2.886925 3.66842,2.927658 -0.59379,10.737004 3.90465,11.639231 4.87876,-0.975798 -3.9675,4.82127 -3.24622,-0.09723 -1.75344,-0.892663 -4.31689,-0.251669 -5.11091,-2.609564"
       id="path27"
       inkscape:label="NewYork" /><path
       style="display:inline;fill:#000000;stroke-width:0.264583"
       d="m 181.3053,49.758094 c 3.67477,1.818142 8.1276,-0.952377 12.11711,-1.306116 4.36802,-1.048758 4.24038,5.033486 4.18085,7.715714 -3.41511,3.403613 -8.75055,2.276185 -12.99183,3.768521 -5.65411,2.458944 -3.94126,-5.049413 -4.99528,-8.255849 0.0776,-0.977128 0.96539,-1.457235 1.68915,-1.92227 z"
       id="path26"
       inkscape:label="Pennsylvania" /><path
       style="fill:#000000;stroke-width:0.264583"
       d="m 179.30845,51.469676 c 1.74256,4.92243 0.71016,10.881627 -3.22907,14.325251 -0.78402,1.940793 -2.47849,-0.018 -3.91429,1.177894 -1.32378,-1.349772 -4.10668,-1.654609 -4.68377,-1.643713 -0.35016,-3.696101 -0.70032,-7.392202 -1.05048,-11.088303 4.86307,-0.656823 9.01132,0.913746 12.87761,-2.771129 z"
       id="path33"
       inkscape:label="Ohio" /><path
       style="display:inline;fill:#000000;stroke-width:0.264583"
       d="m 160.52181,54.607573 c 3.98516,-0.330833 10.44788,1.02215 11.34943,-4.051979 2.37774,-2.776776 -0.0334,-9.04699 -3.57057,-5.215457 2.31005,-4.181351 -0.30572,-11.885992 -6.07721,-11.612585 -3.16041,1.832348 2.99119,6.13909 -1.26135,7.980372 -2.5862,4.502312 1.86327,8.297996 -0.4403,12.899649 z"
       id="path35"
       inkscape:label="Michigan" /><path
       style="fill:#000000;stroke-width:0.264583"
       d="m 167.81641,65.895854 c -0.47544,-3.871432 -0.95088,-7.742863 -1.42632,-11.614295 -3.76102,-0.251511 -9.63249,-0.129585 -7.93204,5.297141 0.63612,3.995157 -0.5084,8.55317 0.33596,12.003065 4.07314,-0.08455 7.24967,-2.368008 9.0224,-5.685911 z"
       id="path34"
       inkscape:label="Indiana" /><path
       style="fill:#000000;stroke-width:0.264583"
       d="m 158.32121,55.504116 c -0.60007,-4.72167 -10.59003,-4.87689 -9.18582,0.296049 -2.44674,3.062249 -5.20119,9.078017 0.44555,11.553579 0.4613,2.239941 1.05569,5.231849 3.91601,6.735793 3.82796,3.910672 5.9757,-5.209296 5.41985,-8.274498 -0.13727,-3.439177 -0.40999,-6.873437 -0.59559,-10.310923 z"
       id="path36"
       inkscape:label="Illinous" /><path
       style="display:inline;fill:#000000;stroke-width:0.264583"
       d="m 149.95825,69.043038 c -2.32285,1.803154 -5.76819,-1.214151 -7.87982,0.712527 -2.79321,-1.573151 -7.59592,-0.232103 -5.60554,3.651409 -0.23484,2.399321 -0.50903,6.740436 3.19785,5.209845 3.96707,-0.213611 7.93413,-0.427222 11.9012,-0.640833 0.0471,4.808505 5.82527,-3.013328 1.76702,-4.199161 -1.1109,-1.573017 -3.78566,-2.392034 -3.38071,-4.733787 z"
       id="path46"
       inkscape:label="SouthMissouri" /><path
       style="display:inline;fill:#000000;stroke-width:0.264583"
       d="m 132.20762,61.666154 c 4.1809,0.758084 8.53346,-1.888749 12.57857,-0.139057 1.60112,2.547747 4.08472,4.772043 5.28034,7.611914 -2.11861,1.726911 -5.54097,-0.247427 -8.22195,0.625523 -2.61595,0.274265 -5.93805,-0.585735 -6.69305,-3.451019 -0.77114,-1.671741 -1.83629,-3.184775 -2.94391,-4.647361 z"
       id="path45"
       inkscape:label="NorthMissouri" /><path
       style="display:inline;fill:#000000;stroke-width:0.264583"
       d="m 133.47552,63.798534 c 1.55818,2.085762 2.98751,4.703707 2.66221,7.34895 0.56418,2.489383 0.58457,6.539117 -3.18208,5.249488 -7.0307,-0.04998 -14.0614,-0.09996 -21.0921,-0.149943 0.13448,-4.149498 0.26895,-8.298997 0.40343,-12.448495 7.06951,0 14.13903,0 21.20854,0 z"
       id="path44"
       inkscape:label="Kansas" /><path
       style="display:inline;fill:#000000;stroke-width:0.264583"
       d="m 133.82132,64.144326 c -2.11628,-2.103481 -1.49333,-4.864445 -2.53016,-7.336387 -0.575,-2.261757 -2.40465,-6.282978 -5.11954,-4.296282 -2.11007,-0.601993 -4.80269,-1.837705 -7.50846,-1.364073 -3.91865,-0.124621 -7.8373,-0.249242 -11.75595,-0.373863 0.17505,2.592227 -0.91836,6.257294 0.0491,8.179335 2.81762,0.37866 6.72727,-0.213755 5.42595,3.827673 0.96455,1.921971 5.39039,0.465388 7.74324,1.032246 4.56528,0.11045 9.13056,0.220901 13.69584,0.331351 z"
       id="path43"
       inkscape:label="Nebraska" /><path
       style="display:inline;fill:#000000;stroke-width:0.264583"
       d="m 149.67009,54.635058 c -2.59958,-1.844656 -3.54473,-7.219112 -7.68847,-5.692195 -4.12248,0.206863 -8.24496,0.413725 -12.36744,0.620588 -0.22644,4.305426 1.92333,8.227393 3.44273,12.122637 4.40048,-0.158315 8.83253,-0.525512 13.21248,-0.546645 1.33174,-1.707056 1.3756,-4.388266 3.11976,-5.68313 l 0.14047,-0.410628 z"
       id="path42"
       inkscape:label="Iowa" /><path
       style="fill:#000000;stroke-width:0.264583"
       d="m 148.70376,52.814489 c 3.02565,-0.8557 9.61621,0.829171 7.444,-4.246284 0.34053,-4.482788 -1.62471,-8.711033 -2.23793,-13.127323 -0.8251,-3.866523 1.78856,5.685311 2.46808,7.689931 1.23411,-0.718421 3.04201,-6.660235 4.63298,-9.347471 0.2295,5.714948 -4.7153,-1.001246 -6.51374,-1.834905 -2.99811,1.514992 -5.8993,5.003142 -9.40022,2.542709 -5.69994,2.014227 -5.65289,10.903318 0.26714,12.732717 1.29539,1.703896 0.4568,5.381806 3.33969,5.590626 z"
       id="path37"
       inkscape:label="Wisconsin" /><path
       style="fill:#000000;stroke-width:0.264583"
       d="m 145.46296,48.468443 c 0.68319,-3.659631 -5.84291,-3.352126 -4.59748,-7.56169 0.63153,-2.809528 1.36988,-5.712731 3.68232,-7.615908 0.74448,-1.438428 4.06853,-3.009852 3.70546,-3.722445 -2.67434,0.06038 -5.08392,0.0501 -7.31927,-1.524092 -2.92394,0.147144 -5.94592,-0.289174 -7.28931,-3.139407 -0.28684,3.014193 -6.23503,-0.406352 -5.69292,3.73413 0.50341,3.587354 1.67255,7.176123 1.47868,10.836855 -0.4792,2.828418 2.05587,5.54702 0.73054,8.493762 1.0809,2.711 4.81172,0.546144 7.0593,0.972512 2.74756,-0.157906 5.49512,-0.315811 8.24268,-0.473717 z"
       id="path39"
       inkscape:label="Minnesota" /><path
       style="fill:#000000;stroke-width:0.264583"
       d="m 129.67182,53.13663 c 0.29322,-3.838316 0.60567,-7.465694 0.40345,-11.411122 -1.13723,-2.640956 -0.69308,-2.720448 -4.78365,-2.587408 -5.82076,-0.213327 -11.64151,-0.426653 -17.46227,-0.639979 -0.26895,4.168709 -0.5379,8.337417 -0.80685,12.506126 5.64793,0.03842 11.29586,0.07684 16.94379,0.115266 2.00596,3.00637 3.56709,-0.405123 5.70553,2.017117 z"
       id="path40"
       inkscape:label="SouthDakota" /><path
       style="fill:#000000;stroke-width:0.264583"
       d="m 129.78708,38.959178 c -0.47616,-3.108257 -0.56726,-6.367152 -1.84422,-9.21567 1.2024,-4.063416 -1.83483,-3.963589 -5.01097,-3.727357 -4.66918,-0.08489 -9.33837,-0.169789 -14.00756,-0.254683 -0.38421,4.360815 -0.76843,8.72163 -1.15264,13.082445"
       id="path41"
       inkscape:label="NorthDakota"
       sodipodi:nodetypes="ccccc" /><path
       style="display:inline;fill:#000000;stroke-width:0.264583"
       d="m 108.5209,26.107259 c -0.46105,5.378979 -0.92211,10.757959 -1.38316,16.136938 -6.80057,-0.653162 -13.601135,-1.306323 -20.401702,-1.959485 0.03435,2.480229 -3.486402,0.651475 -6.092535,1.195635 -1.236616,-1.006509 -1.158061,-6.249971 -3.186204,-5.056975 -1.751085,-1.974131 2.068033,-5.100686 -1.332334,-7.074995 -1.049878,-2.167822 -2.256293,-4.438101 -1.153506,-6.835935 0.719797,-2.910999 4.954327,0.163956 7.195747,-0.155563 8.730982,1.717129 17.474367,3.079377 26.353694,3.75038 z"
       id="path50"
       inkscape:label="Montana" /><path
       style="display:inline;fill:#000000;stroke-width:0.264583"
       d="m 107.48353,42.35946 c -0.365,5.513454 -0.73001,11.026907 -1.09501,16.540361 -7.376885,-0.691583 -14.753769,-1.383166 -22.130654,-2.074749 0.806847,-5.494243 1.613693,-10.988486 2.42054,-16.482729 6.935041,0.672372 13.870084,1.344745 20.805124,2.017117 z"
       id="path49"
       inkscape:label="Wyoming" /><path
       style="fill:#000000;stroke-width:0.264583"
       d="m 112.09408,76.189397 c 0.096,-5.532664 0.19211,-11.065328 0.28816,-16.597992 -7.30004,-0.614741 -14.600085,-1.229482 -21.900128,-1.844223 -0.806847,5.475033 -1.613694,10.950065 -2.420541,16.425098 8.010836,0.672372 16.021669,1.344745 24.032509,2.017117 z"
       id="path47"
       inkscape:label="Colorado" /><path
       style="fill:#000000;stroke-width:0.264583"
       d="m 90.770272,57.689551 c -0.806847,5.532664 -1.613693,11.065328 -2.42054,16.597992 -5.513454,-0.806847 -11.026907,-1.613693 -16.540361,-2.42054 1.363955,-6.91583 2.727911,-13.83166 4.091866,-20.74749 2.996859,0.595529 5.993719,1.191059 8.990578,1.786588 -1.44116,3.705471 0.555445,4.718616 4.058664,4.55184 0.606597,0.0772 1.213195,0.154407 1.819793,0.23161 z"
       id="path48"
       inkscape:label="Utah" /><path
       style="display:inline;fill:#000000;stroke-width:0.264583"
       d="m 86.563141,42.0713 c -1.035536,-1.773553 -5.575753,0.589034 -6.013418,-1.313869 -1.945284,-1.121588 -0.585253,-5.762307 -3.387425,-4.795467 1.836338,-3.628694 -2.931251,-1.045659 -5.275175,-2.321194 -2.972831,-1.536471 0.359003,2.830191 -2.779904,4.354649 -1.859094,1.594537 -0.01977,4.765401 -1.638422,7.392938 -1.642446,3.313541 -0.638331,4.910127 3.069764,4.752507 4.745996,0.883325 9.491991,1.766649 14.237987,2.649974 0.595531,-3.573179 1.191062,-7.146359 1.786593,-10.719538 z"
       id="path60"
       inkscape:label="SouthIdaho" /><path
       style="fill:#000000;stroke-width:0.264583"
       d="m 75.440182,21.554338 c -1.729143,2.475259 -0.650696,4.916371 0.473476,7.186338 1.750181,1.588731 3.793316,6.48396 -0.327315,5.305088 -2.445538,-0.337687 -7.151365,0.231475 -5.068549,-3.46941 0.680264,-3.295499 1.360528,-6.590997 2.040792,-9.886495 0.960532,0.28816 1.921064,0.576319 2.881596,0.864479 z"
       id="path51"
       inkscape:label="NorthIdaho" /><path
       style="fill:#000000;stroke-width:0.264583"
       d="m 72.328057,20.805123 c -5.263715,-1.402377 -10.52743,-2.804753 -15.791145,-4.20713 0.718659,2.958797 0.412473,5.675188 -1.740435,7.954773 -0.546009,-1.377776 2.375916,-4.899227 -1.904318,-5.74444 -3.204856,-3.370942 -1.507591,2.747463 -1.996572,4.633811 0.308614,0.916176 -1.130462,4.088567 1.992562,4.624291 -0.06667,3.198094 2.86608,3.159682 5.66588,3.458231 3.802694,0.890752 7.940194,0.361246 11.756911,1.613694 0.672372,-4.111077 1.344745,-8.222153 2.017117,-12.33323 z"
       id="path52"
       inkscape:label="Washington" /><path
       style="fill:#000000;stroke-width:0.264583"
       d="m 70.080414,33.080721 c 2.972521,2.467124 -2.971094,4.759555 -1.21027,7.376885 -0.845269,2.920018 -1.690537,5.840035 -2.535806,8.760053 -7.242411,-1.671325 -14.484821,-3.342651 -21.727232,-5.013976 0.03552,-2.678647 0.02516,-5.374652 2.305275,-7.20399 0.857791,-3.381264 3.064696,-6.243587 3.285019,-9.797428 4.010116,-0.620069 1.9407,4.471666 5.592574,3.872678 3.163775,0.952338 6.385185,1.043268 9.665206,1.059707 1.541744,0.315357 3.083489,0.630714 4.625234,0.946071 z"
       id="path53"
       inkscape:label="Oregon" /><path
       style="display:inline;fill:#000000;stroke-width:0.264583"
       d="m 30.889956,10.473244 c 1.05955,3.368825 2.119101,6.737651 3.178651,10.106476 1.485596,0.692946 2.586942,-0.904125 3.298803,-1.957145 1.099174,-0.97369 2.540825,-0.002 3.1483,1.045997 0.562426,0.905307 2.014838,2.638413 0.542574,3.370007 -1.187631,0.201244 -1.962328,-1.333006 -3.27151,-0.891328 -2.273215,0.385878 -4.421537,-1.203608 -6.701695,-0.539395 -1.74613,0.403658 -3.878754,1.008165 -4.22031,3.045977 -0.129981,1.370102 -2.83225,3.554056 -2.95936,1.129259 0.52756,-1.455407 -0.911385,-2.291036 -2.057955,-1.328796 -1.910711,0.903387 0.06012,-1.643714 -1.19325,-2.270937 -1.189014,-1.142746 -0.335716,-2.420661 0.6889,-3.199981 0.755724,-1.323166 -1.423888,-1.992678 -0.810328,-3.262685 0.992315,-1.038859 0.621703,-2.263554 0.634913,-3.540011 0.567406,-1.241426 2.062074,-1.826622 3.33679,-2.079891 1.646731,-0.3563368 3.250798,0.252635 4.855875,0.479542 0.511058,0.03824 1.030952,0.01913 1.529602,-0.107089 z"
       id="path59"
       inkscape:label="Alaska" /><path
       style="display:inline;fill:#000000;stroke-width:0.264583"
       d="M 40.54816,101.30927 C 38.179117,99.837262 36.42248,97.679142 34.829014,95.593772 30.577513,93.919227 26.4937,91.860594 22.332053,89.98024 c -4.352172,1.73475 1.732466,2.964091 3.665987,3.496253 4.969434,1.774916 9.015382,5.889091 10.71944,10.889177 1.757226,-1.12274 3.190017,-0.67256 3.83068,-3.0564 z"
       id="path58"
       inkscape:label="Hawaii" /><path
       style="display:inline;fill:#000000;stroke-width:0.264583"
       d="m 59.360876,66.564866 c -2.786058,0.666669 -6.334011,-0.09528 -7.880104,2.896427 -0.631242,3.43148 -7.018604,0.358319 -3.985422,4.027058 1.45085,2.360213 0.143823,5.405261 3.796355,5.707235 2.691332,1.331145 3.809006,3.721602 6.150709,5.525465 0.448565,2.94769 1.017356,4.982167 4.793112,4.332275 2.735356,0.665085 6.259773,0.444329 4.80759,-2.592657 1.606094,-1.918342 3.458728,-3.736536 0.99694,-6.057336 -2.89306,-4.612822 -5.78612,-9.225645 -8.67918,-13.838467 z"
       id="path56"
       inkscape:label="SouthCalifornia" /><path
       style="fill:#000000;stroke-width:0.264583"
       d="m 57.343759,47.603966 c -4.264762,-1.075796 -8.529525,-2.151592 -12.794287,-3.227388 0.337027,2.920792 -2.590511,5.2652 -0.967142,7.910125 1.372902,2.578184 -2.338688,5.308961 0.552103,7.594693 -0.380982,3.247658 4.573819,2.277027 0.858438,3.183344 -0.894746,2.345041 2.619421,4.087336 0.727275,6.103821 0.527709,2.984093 5.017596,2.842617 6.082465,0.211746 1.573001,-2.598243 4.938338,-2.173772 7.500634,-3.103601 -1.523304,-2.664342 -4.05594,-5.163938 -4.949433,-7.931079 0.996649,-3.580554 1.993298,-7.161107 2.989947,-10.741661 z"
       id="path54"
       inkscape:label="NorthCalifornia" /><path
       style="fill:#000000;stroke-width:0.264583"
       d="m 57.574288,47.719228 c 6.051351,1.152639 12.102703,2.305277 18.154054,3.457916 -1.536852,8.241364 -3.073703,16.482729 -4.610555,24.724093 -3.717298,-3.526304 -0.741739,6.011264 -3.588848,2.382746 -4.29796,-6.365334 -8.595921,-12.730668 -12.893881,-19.096002 0.979743,-3.822918 1.959487,-7.645835 2.93923,-11.468753 z"
       id="path55"
       inkscape:label="Nevada" /><path
       style="fill:#000000;stroke-width:0.264583"
       d="m 72.039897,72.039897 c 5.455822,0.768426 10.911644,1.536852 16.367466,2.305278 -0.979742,7.953205 -1.959485,15.906409 -2.939227,23.859614 -3.655318,-0.450803 -7.486928,-0.357607 -10.493311,-2.810899 -2.957005,-1.65647 -5.914009,-3.31294 -8.871014,-4.96941 1.637982,-1.738738 0.710794,-3.747749 2.27155,-5.809323 2.100026,-1.871756 -1.133465,-5.036693 0.940908,-6.345329 -1.332528,-4.461757 2.954723,-0.986194 2.555929,-5.480872 l 0.09954,-0.444611 z"
       id="path57"
       inkscape:label="Arizona" /></g></svg>
